# xmcd
#
# Track frame offsets:
#	150
#	13863
#	28230
#	42148
#	57134
#	70954
#	85829
#	100978
#	115851
#	130772
#	145823
#	159896
#	179149
#	193280
#	207935
#	222130
#	234509
#	249176
#
# Disc length: 3499 seconds
#
# Revision: 0
# Processed by: cddbd v1.5.2PL0 Copyright (c) Steve Scherf et al.
# Submitted via: EasyCDDAExtractor 16.0.6.1
#
DISCID=fe0da912
DTITLE=Βαμβακάρης Μάρκος - Μεγάλοι συνθέτες λαϊκού τραγουδιού-Βαμβακάρης Μ.
DYEAR=2009
DGENRE=Ρεμπέτικη
TTITLE0=Βαμβακάρης Μάρκος - Μαύρα μάτια, μαύρα φρύδια
TTITLE1=Βαμβακάρης Μάρκος - Αν μ' αξιώσει ο Θεός
TTITLE2=Βαμβακάρης Μάρκος - Αντιλαλούν οι φυλακές
TTITLE3=Βαμβακάρης Μάρκος - Ο Αντώνης ο βαρκάρης
TTITLE4=Μαγκίδου Βιργινία - Ρίξε τσιγγάνα τα χαρτιά
TTITLE5=Βαμβακάρης Μάρκος - Αλάνα Πειραιώτισσα
TTITLE6=Βαμβακάρης Μάρκος - Όταν με βλέπεις να περνώ
TTITLE7=Αμπατζή Ρίτα-Βαμβακάρης Μάρκος - Σαν είσαι μάγκας και νταής
TTITLE8=Βαμβακάρης Μάρκος - Κάποτε ήμουνα και 'γώ
TTITLE9=Βαμβακάρης Μάρκος - Χθες το βράδυ στο σκοτάδι
TTITLE10=Βαμβακάρης Μάρκος - Ώρες με θρέφει ο λουλάς
TTITLE11=Τσέρτος Μπάμπης - Πάλι μεθυσμένος είσαι
TTITLE12=Βαμβακάρης Μάρκος - Πρέπει να ξέρεις μηχανή
TTITLE13=Βαμβακάρης Μάρκος - Ο ισοβίτης
TTITLE14=Βαμβακάρης Μάρκος - Εφουμέρναμ' ένα βράδυ
TTITLE15=Ευσταθίου Δημήτρης - Χαρμάνης
TTITLE16=Βαμβακάρης Μάρκος - Όταν πίνω τουμπεκάκι
TTITLE17=Βαμβακάρης Μάρκος - Νόστιμο μικρό τρελλό μου
EXTD=Diafora\n
EXTT0=
EXTT1=
EXTT2=
EXTT3=
EXTT4=
EXTT5=
EXTT6=
EXTT7=
EXTT8=
EXTT9=
EXTT10=
EXTT11=
EXTT12=
EXTT13=
EXTT14=
EXTT15=
EXTT16=
EXTT17=
PLAYORDER=
